<mxfile host="Electron" modified="2024-10-22T07:10:29.487Z" agent="Mozilla/5.0 (Macintosh; Intel Mac OS X 10_15_7) AppleWebKit/537.36 (KHTML, like Gecko) draw.io/24.4.13 Chrome/124.0.6367.207 Electron/30.0.6 Safari/537.36" etag="sdg6e-OIhyC19zwZM_WV" version="24.4.13" type="device">
  <diagram name="第 1 页" id="cK5h48tjVA4PiKqeICYA">
    <mxGraphModel dx="1224" dy="718" grid="1" gridSize="10" guides="1" tooltips="1" connect="1" arrows="1" fold="1" page="1" pageScale="1" pageWidth="827" pageHeight="1169" math="0" shadow="0">
      <root>
        <mxCell id="0" />
        <mxCell id="1" parent="0" />
        <mxCell id="bDnj5kfeAG8dggXIo350-5" value="" style="edgeStyle=orthogonalEdgeStyle;rounded=0;orthogonalLoop=1;jettySize=auto;html=1;" parent="1" source="bDnj5kfeAG8dggXIo350-1" target="bDnj5kfeAG8dggXIo350-2" edge="1">
          <mxGeometry relative="1" as="geometry" />
        </mxCell>
        <mxCell id="bDnj5kfeAG8dggXIo350-6" value="watch" style="edgeLabel;html=1;align=center;verticalAlign=middle;resizable=0;points=[];" parent="bDnj5kfeAG8dggXIo350-5" vertex="1" connectable="0">
          <mxGeometry x="-0.25" y="-1" relative="1" as="geometry">
            <mxPoint x="-1" y="-5" as="offset" />
          </mxGeometry>
        </mxCell>
        <mxCell id="bDnj5kfeAG8dggXIo350-8" value="" style="edgeStyle=orthogonalEdgeStyle;rounded=0;orthogonalLoop=1;jettySize=auto;html=1;" parent="1" source="bDnj5kfeAG8dggXIo350-1" target="bDnj5kfeAG8dggXIo350-7" edge="1">
          <mxGeometry relative="1" as="geometry" />
        </mxCell>
        <mxCell id="bDnj5kfeAG8dggXIo350-11" value="&lt;div&gt;remove .spec.clusters &amp;amp; update .spec.gracefulEvictionTasks&amp;nbsp;&lt;/div&gt;&lt;div&gt;if feature gracefulEviction = true&amp;nbsp; &amp;nbsp;&lt;/div&gt;" style="edgeLabel;html=1;align=center;verticalAlign=middle;resizable=0;points=[];" parent="bDnj5kfeAG8dggXIo350-8" vertex="1" connectable="0">
          <mxGeometry x="0.2133" y="2" relative="1" as="geometry">
            <mxPoint x="-2" y="-4" as="offset" />
          </mxGeometry>
        </mxCell>
        <mxCell id="bDnj5kfeAG8dggXIo350-1" value="&lt;div style=&quot;background-color:#ffffff;color:#080808&quot;&gt;&lt;pre style=&quot;font-family:&#39;JetBrains Mono&#39;,monospace;font-size:12.0pt;&quot;&gt;&lt;span style=&quot;color:#000000;&quot;&gt;NoExecuteTaintManager&lt;/span&gt;&lt;/pre&gt;&lt;/div&gt;" style="shape=hexagon;perimeter=hexagonPerimeter2;whiteSpace=wrap;html=1;fixedSize=1;" parent="1" vertex="1">
          <mxGeometry x="66.25" y="130" width="230" height="80" as="geometry" />
        </mxCell>
        <mxCell id="bDnj5kfeAG8dggXIo350-2" value="Cluster" style="shape=process;whiteSpace=wrap;html=1;backgroundOutline=1;" parent="1" vertex="1">
          <mxGeometry x="121.25" y="30" width="120" height="60" as="geometry" />
        </mxCell>
        <mxCell id="bDnj5kfeAG8dggXIo350-22" value="" style="edgeStyle=orthogonalEdgeStyle;rounded=0;orthogonalLoop=1;jettySize=auto;html=1;" parent="1" source="bDnj5kfeAG8dggXIo350-7" target="bDnj5kfeAG8dggXIo350-18" edge="1">
          <mxGeometry relative="1" as="geometry" />
        </mxCell>
        <mxCell id="bDnj5kfeAG8dggXIo350-23" value=".spec.clusters&lt;div&gt;.spec.gracefulEvictionTasks&lt;/div&gt;&lt;div&gt;.spec.requiredBy&lt;/div&gt;" style="edgeLabel;html=1;align=center;verticalAlign=middle;resizable=0;points=[];" parent="bDnj5kfeAG8dggXIo350-22" vertex="1" connectable="0">
          <mxGeometry x="-0.2215" y="-1" relative="1" as="geometry">
            <mxPoint x="16" y="-1" as="offset" />
          </mxGeometry>
        </mxCell>
        <mxCell id="bDnj5kfeAG8dggXIo350-7" value="ResourceBindings" style="shape=process;whiteSpace=wrap;html=1;backgroundOutline=1;" parent="1" vertex="1">
          <mxGeometry x="103.75" y="365" width="154" height="60" as="geometry" />
        </mxCell>
        <mxCell id="bDnj5kfeAG8dggXIo350-12" value="bingdingEvictionWorker" style="text;html=1;align=center;verticalAlign=middle;whiteSpace=wrap;rounded=0;" parent="1" vertex="1">
          <mxGeometry x="151.25" y="180" width="60" height="30" as="geometry" />
        </mxCell>
        <mxCell id="bDnj5kfeAG8dggXIo350-15" value="" style="edgeStyle=orthogonalEdgeStyle;rounded=0;orthogonalLoop=1;jettySize=auto;html=1;" parent="1" source="bDnj5kfeAG8dggXIo350-14" target="bDnj5kfeAG8dggXIo350-7" edge="1">
          <mxGeometry relative="1" as="geometry" />
        </mxCell>
        <mxCell id="bDnj5kfeAG8dggXIo350-17" value="remove gracefulEvictionTasks according gracePeriodSeconds" style="edgeLabel;html=1;align=center;verticalAlign=middle;resizable=0;points=[];" parent="bDnj5kfeAG8dggXIo350-15" vertex="1" connectable="0">
          <mxGeometry x="0.0133" relative="1" as="geometry">
            <mxPoint as="offset" />
          </mxGeometry>
        </mxCell>
        <mxCell id="bDnj5kfeAG8dggXIo350-14" value="&lt;div style=&quot;background-color:#ffffff;color:#080808&quot;&gt;&lt;pre style=&quot;font-family:&#39;JetBrains Mono&#39;,monospace;font-size:12.0pt;&quot;&gt;&lt;div&gt;&lt;pre style=&quot;font-family:&#39;JetBrains Mono&#39;,monospace;font-size:12.0pt;&quot;&gt;&lt;span style=&quot;color:#000000;&quot;&gt;RBGracefulEvictionController&lt;/span&gt;&lt;/pre&gt;&lt;/div&gt;&lt;/pre&gt;&lt;/div&gt;" style="shape=hexagon;perimeter=hexagonPerimeter2;whiteSpace=wrap;html=1;fixedSize=1;" parent="1" vertex="1">
          <mxGeometry x="40" y="475" width="282.5" height="80" as="geometry" />
        </mxCell>
        <mxCell id="bDnj5kfeAG8dggXIo350-20" value="" style="edgeStyle=orthogonalEdgeStyle;rounded=0;orthogonalLoop=1;jettySize=auto;html=1;" parent="1" source="bDnj5kfeAG8dggXIo350-18" target="bDnj5kfeAG8dggXIo350-19" edge="1">
          <mxGeometry relative="1" as="geometry" />
        </mxCell>
        <mxCell id="bDnj5kfeAG8dggXIo350-21" value="remove orphan works" style="edgeLabel;html=1;align=center;verticalAlign=middle;resizable=0;points=[];" parent="bDnj5kfeAG8dggXIo350-20" vertex="1" connectable="0">
          <mxGeometry y="-1" relative="1" as="geometry">
            <mxPoint as="offset" />
          </mxGeometry>
        </mxCell>
        <mxCell id="bDnj5kfeAG8dggXIo350-18" value="&lt;div style=&quot;background-color:#ffffff;color:#080808&quot;&gt;&lt;pre style=&quot;font-family:&#39;JetBrains Mono&#39;,monospace;font-size:12.0pt;&quot;&gt;&lt;span style=&quot;color:#000000;&quot;&gt;ResourceBindingController&lt;/span&gt;&lt;/pre&gt;&lt;/div&gt;" style="shape=hexagon;perimeter=hexagonPerimeter2;whiteSpace=wrap;html=1;fixedSize=1;" parent="1" vertex="1">
          <mxGeometry x="434.25" y="365" width="259" height="60" as="geometry" />
        </mxCell>
        <mxCell id="bDnj5kfeAG8dggXIo350-19" value="Works" style="shape=process;whiteSpace=wrap;html=1;backgroundOutline=1;" parent="1" vertex="1">
          <mxGeometry x="503.75" y="485" width="120" height="60" as="geometry" />
        </mxCell>
        <mxCell id="iSt92CevIWTVHTcuLfJ_-1" value="" style="edgeStyle=orthogonalEdgeStyle;rounded=0;orthogonalLoop=1;jettySize=auto;html=1;" parent="1" source="iSt92CevIWTVHTcuLfJ_-3" target="iSt92CevIWTVHTcuLfJ_-4" edge="1">
          <mxGeometry relative="1" as="geometry" />
        </mxCell>
        <mxCell id="iSt92CevIWTVHTcuLfJ_-2" value=".status.aggresstatedStatus to judge application" style="edgeLabel;html=1;align=center;verticalAlign=middle;resizable=0;points=[];" parent="iSt92CevIWTVHTcuLfJ_-1" vertex="1" connectable="0">
          <mxGeometry x="-0.0286" y="2" relative="1" as="geometry">
            <mxPoint as="offset" />
          </mxGeometry>
        </mxCell>
        <mxCell id="iSt92CevIWTVHTcuLfJ_-5" style="edgeStyle=orthogonalEdgeStyle;rounded=0;orthogonalLoop=1;jettySize=auto;html=1;entryX=0.5;entryY=0;entryDx=0;entryDy=0;exitX=0.5;exitY=1;exitDx=0;exitDy=0;" parent="1" source="iSt92CevIWTVHTcuLfJ_-3" target="bDnj5kfeAG8dggXIo350-7" edge="1">
          <mxGeometry relative="1" as="geometry">
            <Array as="points">
              <mxPoint x="575" y="260" />
              <mxPoint x="181" y="260" />
            </Array>
          </mxGeometry>
        </mxCell>
        <mxCell id="fAdyjyWjYPuN3LFDOQ8e-1" value="accoding resourcebings.spec.failover.application.purgeMode=graciously&amp;nbsp;" style="edgeLabel;html=1;align=center;verticalAlign=middle;resizable=0;points=[];" parent="iSt92CevIWTVHTcuLfJ_-5" vertex="1" connectable="0">
          <mxGeometry x="-0.4501" y="3" relative="1" as="geometry">
            <mxPoint x="101" y="-33" as="offset" />
          </mxGeometry>
        </mxCell>
        <mxCell id="iSt92CevIWTVHTcuLfJ_-3" value="&lt;div style=&quot;background-color:#ffffff;color:#080808&quot;&gt;&lt;pre style=&quot;font-family:&#39;JetBrains Mono&#39;,monospace;font-size:12.0pt;&quot;&gt;&lt;span style=&quot;color:#000000;&quot;&gt;RBApplicationFailoverController&lt;/span&gt;&lt;/pre&gt;&lt;/div&gt;" style="shape=hexagon;perimeter=hexagonPerimeter2;whiteSpace=wrap;html=1;fixedSize=1;" parent="1" vertex="1">
          <mxGeometry x="420" y="130" width="310" height="80" as="geometry" />
        </mxCell>
        <mxCell id="iSt92CevIWTVHTcuLfJ_-4" value="ResourceBindings" style="shape=process;whiteSpace=wrap;html=1;backgroundOutline=1;" parent="1" vertex="1">
          <mxGeometry x="510" y="20" width="130" height="60" as="geometry" />
        </mxCell>
      </root>
    </mxGraphModel>
  </diagram>
</mxfile>
